<?xml version="1.0" standalone="no"?><!DOCTYPE svg PUBLIC "-//W3C//DTD SVG 1.1//EN" "http://www.w3.org/Graphics/SVG/1.1/DTD/svg11.dtd"><svg class="icon" width="180px" height="180px" viewBox="0 0 1024 1024" version="1.1" xmlns="http://www.w3.org/2000/svg"><path d="M546.266152 130.017646c72.711085 0 141.977276 32.065675 194.99397 90.303874 56.461587 61.96475 87.552292 145.378838 87.552293 234.859404 0 110.366587-49.636798 212.326767-132.790894 272.839896l-53.536678 38.998794v127.049404h-165.853204v-116.389734h-159.635063v-167.781478l-74.227705-35.250577-15.166198-7.236443 24.200919-52.301715 12.046294-25.999196v-36.615535c0-88.223938 31.025707-170.728054 87.357298-232.324482 53.190022-58.151535 122.499545-90.173878 195.21063-90.173878m0-129.99598C320.159811 0 133.853906 202.295411 133.853906 452.49434v7.994753L67.295964 604.221315c-2.643252 5.308169-2.643252 13.302922 0 21.276008 2.664918 5.329835 7.994753 13.324588 13.324588 15.989506l106.380044 50.590102v215.598333h159.700061v116.324736h425.801832v-190.855765c117.126378-85.169033 186.327571-226.236337 186.327572-377.963311C958.830061 202.317077 772.502489 0.021666 546.266152 0.021666z" fill="#FCAC38" /><path d="M625.737028 309.433764m-64.99799 0a64.99799 64.99799 0 1 0 129.99598 0 64.99799 64.99799 0 1 0-129.99598 0Z" fill="#EF8E25" /></svg>