<?xml version="1.0" standalone="no"?><!DOCTYPE svg PUBLIC "-//W3C//DTD SVG 1.1//EN" "http://www.w3.org/Graphics/SVG/1.1/DTD/svg11.dtd"><svg t="1680248018870" class="icon" viewBox="0 0 1029 1024" version="1.1" xmlns="http://www.w3.org/2000/svg" p-id="2067" xmlns:xlink="http://www.w3.org/1999/xlink" width="200.9765625" height="200"><path d="M0 841.354253l497.202312 182.645747v-574.995871L0 266.358382v574.995871z" fill="#EF6E69" p-id="2068"></path><path d="M16.911643 214.77787l501.430223 189.410404 187.92218-71.231841L220.375623 127.632172 16.911643 214.77787zM1018.080925 214.77787L518.341866 0 345.724723 73.937704l495.984674 207.691891L1018.080925 214.77787z" fill="#F7A46B" p-id="2069"></path><path d="M345.724723 73.937704l-125.3491 53.694468 485.888423 205.324261 135.445351-51.326838L345.724723 73.937704z" fill="#EFEFEF" p-id="2070"></path><path d="M854.596069 330.757919V514.113955l-126.786589 57.499588V377.349496L532.716763 449.004129v574.995871l497.202312-182.645747v-574.995871l-175.323006 64.399537z" fill="#F7A46B" p-id="2071"></path><path d="M854.596069 514.113955V330.757919l-126.786589 46.591577V571.613543l126.786589-57.499588z" fill="#EFEFEF" p-id="2072"></path></svg>