<?xml version="1.0" standalone="no"?><!DOCTYPE svg PUBLIC "-//W3C//DTD SVG 1.1//EN" "http://www.w3.org/Graphics/SVG/1.1/DTD/svg11.dtd"><svg class="icon" width="180px" height="180px" viewBox="0 0 1024 1024" version="1.1" xmlns="http://www.w3.org/2000/svg"><path d="M73.197294 885.434386h877.605313v138.565614H73.197294z" fill="#F45D5D" /><path d="M950.802607 0.000115h-184.754151a322.742408 322.742408 0 0 0-254.036958 123.323397A322.742408 322.742408 0 0 0 257.974539 0.000115h-184.754151v762.110875h184.754151a322.742408 322.742408 0 0 1 254.036959 123.323396 322.742408 322.742408 0 0 1 254.036958-123.323396h184.754151z m-739.016605 138.565614h46.188537a184.962 184.962 0 0 1 184.754152 184.754152v300.225496h-230.942689z m600.450992 484.979648h-230.94269V323.319881a184.962 184.962 0 0 1 184.754152-184.754152h46.188538z" fill="#F45D5D" /><path d="M520.833508 874.787928c1.801353-2.124673 3.648894-4.203157 5.519531-6.258546l1.824447-2.009202q7.551826-8.22156 15.63482-15.842668l1.154713-1.085431c2.494181-2.309427 5.057645-4.618854 7.621109-6.928281l0.762111-0.669733c5.889039-5.150022 11.985926-10.092196 18.221378-14.803427q4.734325-3.579612 9.63031-6.928281V323.319881a321.957203 321.957203 0 0 0-69.282806-199.996369 321.841732 321.841732 0 0 0-69.282807 199.996369v496.780819q4.895985 3.394858 9.63031 6.92828 9.399367 7.066846 18.221378 14.803427l0.762111 0.669733c2.586558 2.309427 5.126928 4.618854 7.644203 6.928281l1.154713 1.062336q8.082994 7.667297 15.634821 15.865763l1.824447 1.986107c1.870636 2.078484 3.695083 4.156968 5.51953 6.281642l1.963013 2.309426c2.309427 2.748218 4.618854 5.51953 6.928281 8.360126 2.309427-2.840595 4.618854-5.611907 6.92828-8.360126z" fill="#EA4747" /></svg>