<?xml version="1.0" standalone="no"?><!DOCTYPE svg PUBLIC "-//W3C//DTD SVG 1.1//EN" "http://www.w3.org/Graphics/SVG/1.1/DTD/svg11.dtd"><svg class="icon" width="180px" height="180px" viewBox="0 0 1045 1024" version="1.1" xmlns="http://www.w3.org/2000/svg"><path d="M522.800637 181.09747a67.928534 67.928534 0 1 1-67.928534 67.928534 68.087033 68.087033 0 0 1 67.928534-67.928534m0-135.857067a203.785601 203.785601 0 1 0 203.7856 203.785601 203.785601 203.785601 0 0 0-203.7856-203.785601z" fill="#2582FD" /><path d="M0 956.048824l384.928357-666.718557 117.654484 67.928534-384.928357 666.718556zM927.971696 1024l-384.928356-666.718557 117.654484-67.928533 384.928357 666.718556z" fill="#2582FD" /><path d="M2.015213 688.365116h1041.570847v135.857067H2.015213z" fill="#2582FD" /><path d="M812.629047 824.222183h156.869626l-78.434813-135.857067h-156.869627l78.434814 135.857067zM232.99487 824.222183l78.434813-135.857067H154.560057l-78.434814 135.857067h156.869627z" fill="#1866D6" /><path d="M450.343534 586.472316h135.857067v339.642667h-135.857067z" fill="#2582FD" /><path d="M450.343534 688.365116h135.857067v135.857067h-135.857067z" fill="#1866D6" /><path d="M454.872103 0h135.857067v181.142756h-135.857067z" fill="#2582FD" /></svg>